<?xml version="1.0" encoding="UTF-8"?>
<svg width="400px" height="149px" viewBox="0 0 400 149" version="1.1" xmlns="http://www.w3.org/2000/svg" xmlns:xlink="http://www.w3.org/1999/xlink">
    <!-- Generator: Sketch 50.2 (55047) - http://www.bohemiancoding.com/sketch -->
    <title>Artboard</title>
    <desc>Created with Sketch.</desc>
    <defs></defs>
    <g id="Artboard" stroke="none" stroke-width="1" fill="none" fill-rule="evenodd">
        <g id="equal-housing-lender-1" fill="#FFFFFF" fill-rule="nonzero">
            <path d="M0,41.4568283 L73.8224927,0 L146,41.8679432 L146,56.4392263 L134.48373,56.4392263 L134.48373,107.953296 L11.310304,107.953296 L11.310304,56.4405967 L0,56.4405967 L0,41.4568283 Z M73.8170002,15.6182557 L26.3156459,43.1204733 L26.3156459,94.8401004 L120.289895,94.8401004 L120.289895,43.1204733 L73.8170002,15.6182557 Z M48.5531563,62.823841 L48.5531563,50.0984639 L97.6994959,50.0984639 L97.6994959,62.823841 L48.5531563,62.823841 Z M48.5531563,69.1687145 L97.6994959,69.1687145 L97.6994959,81.8940916 L48.5531563,81.8940916 L48.5531563,69.1687145 Z M75.2587653,147.99863 L75.2587653,131.785628 L83.8956249,131.785628 C90.0650064,131.785628 94.3834362,133.632904 94.3834362,140.20115 C94.3834362,146.563839 90.4769393,148 83.6896584,148 L75.2587653,148 L75.2587653,147.99863 Z M79.7804153,135.267771 L79.7804153,144.502782 L83.4823189,144.502782 C86.9768829,144.502782 89.445734,143.88748 89.445734,140.192928 C89.445734,136.90949 86.7722895,135.267771 83.8942517,135.267771 L79.7804153,135.267771 Z M120.105899,147.99863 L120.105899,131.785628 L132.032729,131.785628 C136.555752,131.785628 138.408077,133.223159 138.408077,136.916342 C138.408077,139.584478 136.967685,140.816452 133.883681,141.227567 L138.61267,148 L133.677714,148 L128.948725,141.227567 L124.630295,141.227567 L124.630295,148 L120.105899,148 L120.105899,147.99863 Z M131.395606,135.270512 L124.609698,135.270512 L124.609698,137.73309 L131.18964,137.73309 C133.451151,137.73309 134.06905,137.73309 134.06905,136.501116 C134.06905,135.476069 133.246558,135.270512 131.395606,135.270512 Z M50.5922241,131.785628 L50.5922241,147.99863 L54.9106538,147.99863 L54.9106538,138.148316 L63.5475134,147.99863 L68.6884358,147.99863 L68.6884358,131.785628 L64.370006,131.785628 L64.370006,141.841499 L55.7331465,131.785628 L50.5922241,131.785628 Z M8.41304266,131.785628 L8.41304266,147.99863 L24.6583026,147.99863 L24.6583026,144.509634 L12.9374389,144.304077 L12.9374389,131.785628 L8.41304266,131.785628 Z M29.2074148,147.99863 L45.0407419,147.99863 L45.0407419,144.509634 L33.9364043,144.509634 L33.9364043,141.020639 L43.1897901,141.020639 L43.1897901,137.737201 L33.9364043,137.737201 L33.9364043,135.274623 L45.0407419,135.274623 L45.0407419,131.785628 L29.2074148,131.785628 L29.2074148,147.99863 Z M99.3321232,131.785628 L99.3321232,147.99863 L114.959484,147.794443 L114.959484,144.509634 L103.855146,144.509634 L103.855146,141.020639 L113.314499,141.020639 L113.314499,137.737201 L103.855146,137.737201 L103.855146,135.274623 L114.959484,135.274623 L114.959484,131.785628 L99.3321232,131.785628 Z M40.4930028,127.671738 L44.6054661,113.100455 L48.1014032,113.100455 L52.2138665,127.671738 L49.0104018,127.671738 L48.1000301,124.3883 L44.3981266,124.3883 L43.4877549,127.671738 L40.4930028,127.671738 Z M46.2669287,116.209854 L45.0338763,121.95587 L47.7073207,121.95587 L46.2669287,116.209854 Z M17.6787864,122.336836 L17.6787864,118.436726 C17.6787864,114.742174 18.9118388,112.69071 22.6137424,112.69071 C26.7262057,112.69071 27.5486984,115.153288 27.5486984,118.642284 L27.5486984,121.721534 C27.5486984,123.568811 27.3427319,124.38967 26.7262057,125.621645 L29.1936837,126.442504 L28.9877173,127.468921 C20.5581973,127.468921 17.6787864,127.263364 17.6787864,122.336836 Z M20.7559251,118.640913 L20.7559251,122.129909 C20.7559251,124.798044 21.1678579,125.618904 22.6068768,125.618904 C24.2518622,125.618904 24.4578286,125.003602 24.4578286,122.335466 L24.4578286,118.435356 C24.4578286,115.561663 24.2532353,115.151918 22.8128433,115.151918 C20.9618915,115.150548 20.7559251,115.972778 20.7559251,118.640913 Z M101.166598,123.770257 C101.166598,126.027278 102.605617,127.875925 105.895587,127.875925 C108.569032,127.875925 111.03651,126.028648 111.03651,123.770257 C111.03651,120.281262 104.456568,118.639543 104.456568,116.381152 C104.456568,115.560292 105.279061,115.150548 106.101554,115.150548 C107.334606,115.150548 107.952505,115.971407 108.569032,117.203382 L110.62595,116.382522 C110.421357,114.329688 108.980965,112.687969 105.89696,112.687969 C103.429482,112.687969 101.373937,113.918573 101.373937,116.382522 C101.373937,120.48819 107.953879,121.513236 107.953879,124.181372 C107.953879,125.207789 107.337352,125.618904 106.102927,125.618904 C104.868501,125.618904 104.046009,124.798044 103.635449,123.361883 L101.166598,123.770257 Z M78.9826386,122.949398 L78.9826386,118.229798 C78.9826386,114.329688 80.8335904,112.687969 83.9175946,112.687969 C87.8254646,112.687969 88.8525506,114.124131 88.8525506,117.818684 L88.8525506,122.334096 C88.8525506,126.234206 87.8240915,127.875925 83.9175946,127.875925 C80.0124708,127.874554 78.9826386,126.438393 78.9826386,122.949398 Z M82.0597773,118.024241 L82.0597773,122.538283 C82.0597773,124.591117 82.2643706,125.617533 83.9107291,125.617533 C85.1437815,125.617533 85.7616808,124.796674 85.7616808,122.334096 L85.7616808,118.024241 C85.7616808,116.382522 85.5570875,114.94499 83.9107291,114.94499 C82.2643706,114.94499 82.0597773,116.176965 82.0597773,118.024241 Z M128.518941,122.334096 C128.518941,126.64395 129.753367,127.875925 133.86583,127.875925 C137.048698,127.875925 137.978294,126.386318 137.978294,124.796674 L137.978294,120.075704 L133.659864,120.075704 L133.659864,122.332725 L135.098883,122.332725 L135.098883,123.974444 C135.098883,125.205048 134.688323,125.821721 133.659864,125.821721 C131.602946,125.821721 131.398352,124.384189 131.398352,122.332725 L131.398352,119.049287 C131.398352,116.586709 131.602946,114.94499 133.659864,114.94499 C135.098883,114.94499 135.921375,115.971407 136.127342,117.407569 L138.182887,116.586709 C137.978294,114.124131 136.331935,112.686599 133.453897,112.686599 C129.341434,112.686599 128.518941,114.94362 128.518941,118.022871 L128.518941,122.334096 Z M90.0842299,113.097714 L90.0842299,121.511866 C90.0842299,126.438393 90.9300655,128.012963 95.2484952,128.012963 C98.5384659,128.012963 99.7481755,126.232835 99.7481755,121.922981 L99.7481755,113.097714 L96.8687646,113.097714 L96.8687646,121.511866 C96.8687646,124.795304 96.6627981,125.617533 95.0178128,125.617533 C93.3728275,125.617533 93.166861,124.385559 93.166861,121.307679 L93.166861,113.097714 L90.0842299,113.097714 Z M117.418723,113.100455 L117.418723,127.671738 L119.886201,127.671738 L119.886201,117.820054 L123.382138,127.671738 L127.084042,127.671738 L127.084042,113.100455 L124.615191,113.100455 L124.615191,122.129909 L121.32522,113.100455 L117.418723,113.100455 Z M30.4473328,113.097714 L30.4473328,121.922981 C30.4473328,126.027278 30.8592657,127.874554 34.971729,127.874554 C39.7007185,127.874554 39.906685,125.617533 39.906685,121.511866 L39.906685,113.097714 L37.0272741,113.097714 L37.0272741,121.717423 C37.0272741,124.591117 36.6167143,125.411976 35.1763223,125.411976 C33.531337,125.411976 33.3253706,124.591117 33.3253706,121.307679 L33.3253706,113.097714 L30.4473328,113.097714 Z M67.6599767,113.100455 L67.6599767,127.671738 L70.5393876,127.671738 L70.5393876,121.104862 L74.0353247,121.104862 L74.0353247,127.671738 L76.9133624,127.671738 L76.9133624,113.100455 L74.0353247,113.100455 L74.0353247,118.640913 L70.5393876,118.640913 L70.5393876,113.100455 L67.6599767,113.100455 Z M8.22767286,113.100455 L8.22767286,127.671738 L15.6314799,127.671738 L15.6314799,125.414717 L11.1070837,125.414717 L11.1070837,121.309049 L15.2195471,121.309049 L15.2195471,119.256215 L11.1070837,119.256215 L11.1070837,115.357476 L15.6314799,115.357476 L15.6314799,113.100455 L8.22767286,113.100455 Z M53.4647694,113.100455 L53.4647694,127.671738 L60.2506771,127.671738 L60.2506771,125.414717 L55.9322474,125.414717 L55.9322474,113.100455 L53.4647694,113.100455 Z M112.508483,113.100455 L115.181928,113.100455 L115.181928,127.671738 L112.508483,127.671738 L112.508483,113.100455 Z" id="Shape"></path>
        </g>
        <path d="M222.24,69.13 L222.24,89.244 L193.425,89.244 L193.425,101.335 L220.545,101.335 L220.545,121.449 L193.425,121.449 L193.425,147.1 L168,147.1 L168,69.13 L222.24,69.13 Z M298.6,108.115 C298.6,123.935 292.95,132.975 285.605,138.625 C278.26,144.275 268.09,147.1 254.53,147.1 L225.15,147.1 L225.15,69.13 L254.53,69.13 C268.09,69.13 278.26,71.955 285.605,77.605 C292.95,83.255 298.6,92.295 298.6,108.115 Z M272.836,108.115 C272.836,100.205 270.689,96.25 268.316,93.99 C266.056,91.73 262.101,90.035 256.451,90.035 L250.575,90.035 L250.575,125.63 L256.451,125.63 C262.101,125.63 266.056,123.935 268.316,121.675 C270.576,119.415 272.836,116.025 272.836,108.115 Z M327.048,69.13 L327.048,147.1 L301.51,147.1 L301.51,69.13 L327.048,69.13 Z M392.108,118.285 L399.453,138.625 C396.628,141.45 388.718,148.456 371.768,148.456 C348.603,148.456 329.958,134.218 329.958,108.228 C329.958,82.238 348.603,68 371.768,68 C389.283,68 397.758,75.345 397.758,75.345 L390.978,96.815 C390.978,96.815 383.068,90.035 373.463,90.035 C363.858,90.035 355.609,95.685 355.609,107.889 C355.609,119.98 364.423,125.404 373.463,125.404 C382.503,125.404 388.718,121.675 392.108,118.285 Z" id="FDIC" fill="#FFFFFF"></path>
        <path d="M214.5,57.28125 L196.476562,57.28125 L196.476562,55.453125 C197.007815,55.4062498 197.660152,55.3281255 198.433594,55.21875 C199.207035,55.1093745 199.734374,54.9921881 200.015625,54.8671875 C200.593753,54.6328113 201.007811,54.312502 201.257812,53.90625 C201.507814,53.499998 201.632812,52.9843781 201.632812,52.359375 L201.632812,27.515625 L190.195312,56.7421875 L187.242188,56.7421875 C187.101562,56.2265599 186.753909,55.2031327 186.199219,53.671875 C185.644528,52.1406173 185.195314,50.9140671 184.851562,49.9921875 L176.4375,27.140625 L176.4375,47.3671875 C176.4375,49.3046972 176.566405,50.7773387 176.824219,51.7851562 C177.082033,52.7929738 177.499997,53.5312477 178.078125,54 C178.468752,54.3281266 179.167964,54.6406235 180.175781,54.9375 C181.183599,55.2343765 181.890623,55.4062498 182.296875,55.453125 L182.296875,57.28125 L168,57.28125 L168,55.453125 C168.390627,55.4062498 169.027339,55.3007821 169.910156,55.1367188 C170.792973,54.9726554 171.515622,54.687502 172.078125,54.28125 C172.703128,53.8437478 173.124999,53.1054739 173.34375,52.0664062 C173.562501,51.0273386 173.671875,49.5468846 173.671875,47.625 L173.671875,31.1484375 C173.671875,30.1484325 173.546876,29.3164096 173.296875,28.6523438 C173.046874,27.9882779 172.671877,27.4609395 172.171875,27.0703125 C171.546872,26.5859351 170.906253,26.2734382 170.25,26.1328125 C169.593747,25.9921868 168.929691,25.8984377 168.257812,25.8515625 L168.257812,24.0234375 L183.5625,24.0234375 L191.765625,45.984375 L198.679688,28.1484375 C198.914064,27.4921842 199.140624,26.710942 199.359375,25.8046875 C199.578126,24.898433 199.695312,24.3046889 199.710938,24.0234375 L214.453125,24.0234375 L214.453125,25.8515625 C213.953123,25.8828127 213.42969,25.945312 212.882812,26.0390625 C212.335935,26.132813 211.812502,26.2578117 211.3125,26.4140625 C210.703122,26.6171885 210.300782,26.9374978 210.105469,27.375 C209.910155,27.8125022 209.8125,28.2968723 209.8125,28.828125 L209.8125,52.3828125 C209.8125,52.9453153 209.910155,53.4179668 210.105469,53.8007812 C210.300782,54.1835957 210.703122,54.5156236 211.3125,54.796875 C211.625002,54.9375007 212.136715,55.0703119 212.847656,55.1953125 C213.558597,55.3203131 214.109373,55.4062498 214.5,55.453125 L214.5,57.28125 Z M241.940226,51.6796875 C241.393348,52.570317 240.733199,53.4101523 239.959757,54.1992188 C239.186316,54.9882852 238.307418,55.6640597 237.323039,56.2265625 C236.276158,56.8203155 235.217575,57.2695297 234.147257,57.5742188 C233.076939,57.8789078 231.846483,58.03125 230.455851,58.03125 C228.14334,58.03125 226.147266,57.7031283 224.46757,57.046875 C222.787874,56.3906217 221.401169,55.507818 220.307414,54.3984375 C219.213658,53.289057 218.39726,51.9804763 217.858195,50.4726562 C217.31913,48.9648362 217.049601,47.3281338 217.049601,45.5625 C217.049601,43.968742 217.342567,42.4414136 217.928507,40.9804688 C218.514448,39.5195239 219.346471,38.2187557 220.424601,37.078125 C221.487106,35.9687445 222.826937,35.0703159 224.444132,34.3828125 C226.061328,33.6953091 227.869904,33.3515625 229.869914,33.3515625 C232.057425,33.3515625 233.854282,33.6171848 235.260539,34.1484375 C236.666796,34.6796902 237.830846,35.4140578 238.752726,36.3515625 C239.643356,37.242192 240.291787,38.2929627 240.698039,39.5039062 C241.104291,40.7148498 241.307414,41.9843684 241.307414,43.3125 L241.307414,44.8359375 L225.463664,44.8359375 C225.463664,48.0390785 226.080845,50.4765541 227.315226,52.1484375 C228.549607,53.8203209 230.510525,54.65625 233.198039,54.65625 C234.666796,54.65625 235.987095,54.2539103 237.158976,53.4492188 C238.330857,52.6445272 239.330847,51.6250062 240.158976,50.390625 L241.940226,51.6796875 Z M232.987101,42.7734375 C232.987101,41.8359328 232.940227,40.8750049 232.846476,39.890625 C232.752726,38.9062451 232.588665,38.1015656 232.354289,37.4765625 C232.088662,36.7421838 231.725385,36.1875019 231.264445,35.8125 C230.803505,35.4374981 230.22148,35.25 229.518351,35.25 C228.31522,35.25 227.354292,35.8593689 226.635539,37.078125 C225.916785,38.2968811 225.526164,40.2265493 225.463664,42.8671875 L232.987101,42.7734375 Z M289.84139,57.28125 L275.87264,57.28125 L275.87264,55.5703125 C276.216391,55.5234373 276.575763,55.4843752 276.950765,55.453125 C277.325767,55.4218748 277.638263,55.3437506 277.888265,55.21875 C278.232016,55.0624992 278.450764,54.8007831 278.544515,54.4335938 C278.638265,54.0664044 278.68514,53.5937529 278.68514,53.015625 L278.68514,42.0703125 C278.68514,40.4609295 278.399986,39.2539103 277.829671,38.4492188 C277.259356,37.6445272 276.442957,37.2421875 275.380452,37.2421875 C274.708574,37.2421875 274.110924,37.3476552 273.587483,37.5585938 C273.064043,37.7695323 272.583579,38.0312484 272.146077,38.34375 C271.69295,38.6718766 271.341391,38.9999984 271.09139,39.328125 C270.841388,39.6562516 270.630453,39.9374988 270.458577,40.171875 L270.458577,52.7578125 C270.458577,53.3203153 270.524983,53.777342 270.657796,54.1289062 C270.790609,54.4804705 271.0367,54.7578115 271.396077,54.9609375 C271.646078,55.1015632 271.931232,55.226562 272.251546,55.3359375 C272.57186,55.445313 272.9117,55.5234373 273.271077,55.5703125 L273.271077,57.28125 L259.888265,57.28125 L259.888265,55.5703125 C260.185141,55.5390623 260.544513,55.5000002 260.96639,55.453125 C261.388267,55.4062498 261.700764,55.3281255 261.90389,55.21875 C262.232016,55.0468741 262.446858,54.7968766 262.548421,54.46875 C262.649984,54.1406234 262.700765,53.6562532 262.700765,53.015625 L262.700765,42.0703125 C262.700765,40.4609295 262.415611,39.2539103 261.845296,38.4492188 C261.274981,37.6445272 260.458582,37.2421875 259.396077,37.2421875 C258.724199,37.2421875 258.126549,37.3476552 257.603108,37.5585938 C257.079668,37.7695323 256.599204,38.0312484 256.161702,38.34375 C255.708575,38.6718766 255.357016,38.9999984 255.107015,39.328125 C254.857013,39.6562516 254.646078,39.9374988 254.474202,40.171875 L254.474202,52.7578125 C254.474202,53.3046902 254.544514,53.7578107 254.68514,54.1171875 C254.825765,54.4765643 255.075763,54.7578115 255.43514,54.9609375 C255.685141,55.1015632 255.970294,55.226562 256.290608,55.3359375 C256.610923,55.445313 256.950763,55.5234373 257.31014,55.5703125 L257.31014,57.28125 L243.271077,57.28125 L243.271077,55.5703125 C243.677329,55.5390623 244.075763,55.5000002 244.46639,55.453125 C244.857017,55.4062498 245.192951,55.3281255 245.474202,55.21875 C245.974205,55.0312491 246.317951,54.7617205 246.505452,54.4101562 C246.692953,54.058592 246.786702,53.5937529 246.786702,53.015625 L246.786702,39.375 C246.786702,38.8749975 246.653891,38.3867211 246.388265,37.9101562 C246.122638,37.4335914 245.802329,37.0625013 245.427327,36.796875 C245.146076,36.6093741 244.790611,36.4531256 244.360921,36.328125 C243.931231,36.2031244 243.45858,36.1171877 242.942952,36.0703125 L242.942952,34.359375 L254.12264,33.75 L254.474202,34.1015625 L254.474202,37.40625 L254.567952,37.40625 C255.005454,37.015623 255.52498,36.5507839 256.126546,36.0117188 C256.728111,35.4726536 257.294512,35.0390641 257.825765,34.7109375 C258.403893,34.3359356 259.146073,34.0234387 260.052327,33.7734375 C260.958582,33.5234363 261.950759,33.3984375 263.02889,33.3984375 C264.810149,33.3984375 266.298415,33.7851524 267.493733,34.5585938 C268.689052,35.3320351 269.5367,36.3593686 270.036702,37.640625 L270.24764,37.640625 C270.700767,37.2187479 271.255449,36.7226591 271.911702,36.1523438 C272.567955,35.5820284 273.169512,35.1250017 273.71639,34.78125 C274.325768,34.390623 275.103104,34.0625013 276.048421,33.796875 C276.993738,33.5312487 278.005447,33.3984375 279.083577,33.3984375 C281.442964,33.3984375 283.259352,34.093743 284.532796,35.484375 C285.80624,36.875007 286.442952,38.8515497 286.442952,41.4140625 L286.442952,52.8046875 C286.442952,53.3828154 286.528889,53.8476545 286.700765,54.1992188 C286.872641,54.550783 287.185137,54.8203116 287.638265,55.0078125 C287.888266,55.117188 288.196857,55.226562 288.564046,55.3359375 C288.931235,55.445313 289.357012,55.5234373 289.84139,55.5703125 L289.84139,57.28125 Z M319.062866,45.8203125 C319.062866,49.3359551 317.902721,52.2499884 315.582397,54.5625 C313.262073,56.8750116 310.320696,58.03125 306.758178,58.03125 C305.383171,58.03125 304.199589,57.9335947 303.207397,57.7382812 C302.215205,57.5429678 301.375369,57.3046889 300.687866,57.0234375 C299.969112,56.726561 299.394899,56.4335952 298.965209,56.1445312 C298.53552,55.8554673 298.195679,55.6171884 297.945678,55.4296875 L294.594116,58.4765625 L293.211303,57.9375 C293.289429,56.7968693 293.355834,55.5586004 293.410522,54.2226562 C293.46521,52.8867121 293.492553,51.0859488 293.492553,48.8203125 L293.492553,26.8828125 C293.492553,26.2890595 293.371461,25.7382838 293.129272,25.2304688 C292.887083,24.7226537 292.562868,24.3359388 292.156616,24.0703125 C291.859739,23.8828116 291.42615,23.7187507 290.855834,23.578125 C290.285519,23.4374993 289.758181,23.3515627 289.273803,23.3203125 L289.273803,21.609375 L300.851928,21 L301.203491,21.375 L301.203491,36.609375 L301.344116,36.609375 C302.484746,35.4999945 303.65661,34.6875026 304.859741,34.171875 C306.062872,33.6562474 307.265985,33.3984375 308.469116,33.3984375 C311.750382,33.3984375 314.336294,34.5156138 316.226928,36.75 C318.117563,38.9843862 319.062866,42.0077934 319.062866,45.8203125 Z M310.648803,46.1015625 C310.648803,44.9140566 310.55896,43.7695368 310.379272,42.6679688 C310.199584,41.5664007 309.898805,40.5937542 309.476928,39.75 C309.055051,38.9062458 308.500369,38.2304713 307.812866,37.7226562 C307.125362,37.2148412 306.273808,36.9609375 305.258178,36.9609375 C304.305048,36.9609375 303.515994,37.1171859 302.890991,37.4296875 C302.265988,37.7421891 301.703493,38.203122 301.203491,38.8125 L301.203491,52.453125 C301.297241,52.7656266 301.473021,53.1757787 301.730834,53.6835938 C301.988648,54.1914088 302.250364,54.5859361 302.515991,54.8671875 C302.890993,55.2734395 303.289426,55.5820302 303.711303,55.7929688 C304.13318,56.0039073 304.726924,56.109375 305.492553,56.109375 C307.086311,56.109375 308.344111,55.23829 309.265991,53.4960938 C310.18787,51.7538975 310.648803,49.2890784 310.648803,46.1015625 Z M346.362467,51.6796875 C345.815589,52.570317 345.155439,53.4101523 344.381998,54.1992188 C343.608557,54.9882852 342.729659,55.6640597 341.745279,56.2265625 C340.698399,56.8203155 339.639816,57.2695297 338.569498,57.5742188 C337.49918,57.8789078 336.268724,58.03125 334.878092,58.03125 C332.56558,58.03125 330.569506,57.7031283 328.889811,57.046875 C327.210115,56.3906217 325.82341,55.507818 324.729654,54.3984375 C323.635899,53.289057 322.819501,51.9804763 322.280436,50.4726562 C321.74137,48.9648362 321.471842,47.3281338 321.471842,45.5625 C321.471842,43.968742 321.764808,42.4414136 322.350748,40.9804688 C322.936688,39.5195239 323.768711,38.2187557 324.846842,37.078125 C325.909347,35.9687445 327.249177,35.0703159 328.866373,34.3828125 C330.483569,33.6953091 332.292144,33.3515625 334.292154,33.3515625 C336.479665,33.3515625 338.276522,33.6171848 339.682779,34.1484375 C341.089036,34.6796902 342.253087,35.4140578 343.174967,36.3515625 C344.065596,37.242192 344.714027,38.2929627 345.120279,39.5039062 C345.526531,40.7148498 345.729654,41.9843684 345.729654,43.3125 L345.729654,44.8359375 L329.885904,44.8359375 C329.885904,48.0390785 330.503086,50.4765541 331.737467,52.1484375 C332.971848,53.8203209 334.932766,54.65625 337.620279,54.65625 C339.089037,54.65625 340.409336,54.2539103 341.581217,53.4492188 C342.753098,52.6445272 343.753088,51.6250062 344.581217,50.390625 L346.362467,51.6796875 Z M337.409342,42.7734375 C337.409342,41.8359328 337.362467,40.8750049 337.268717,39.890625 C337.174966,38.9062451 337.010905,38.1015656 336.776529,37.4765625 C336.510903,36.7421838 336.147625,36.1875019 335.686686,35.8125 C335.225746,35.4374981 334.64372,35.25 333.940592,35.25 C332.737461,35.25 331.776533,35.8593689 331.057779,37.078125 C330.339026,38.2968811 329.948405,40.2265493 329.885904,42.8671875 L337.409342,42.7734375 Z M371.037068,38.3203125 C371.037068,39.5078184 370.669884,40.5507768 369.935505,41.4492188 C369.201127,42.3476607 368.232386,42.796875 367.029255,42.796875 C365.888625,42.796875 364.923791,42.5078154 364.134724,41.9296875 C363.345658,41.3515596 362.95113,40.5000056 362.95113,39.375 C362.95113,38.8281223 362.990192,38.4023453 363.068318,38.0976562 C363.146443,37.7929672 363.216755,37.5078138 363.279255,37.2421875 C362.560502,37.2734377 361.802697,37.5234352 361.005818,37.9921875 C360.208939,38.4609398 359.505821,39.0859336 358.896443,39.8671875 L358.896443,52.734375 C358.896443,53.2812527 358.98238,53.7343732 359.154255,54.09375 C359.326131,54.4531268 359.615191,54.734374 360.021443,54.9375 C360.365195,55.1093759 360.923783,55.2539057 361.697224,55.3710938 C362.470666,55.4882818 363.029254,55.5546874 363.373005,55.5703125 L363.373005,57.28125 L347.693318,57.28125 L347.693318,55.5703125 C348.083945,55.5390623 348.478472,55.496094 348.876912,55.4414062 C349.275351,55.3867185 349.615191,55.3125005 349.896443,55.21875 C350.396445,55.0468741 350.740192,54.7812518 350.927693,54.421875 C351.115194,54.0624982 351.208943,53.5937529 351.208943,53.015625 L351.208943,39.375 C351.208943,38.8124972 351.076132,38.308596 350.810505,37.8632812 C350.544879,37.4179665 350.22457,37.0625013 349.849568,36.796875 C349.568316,36.6093741 349.212851,36.4531256 348.783162,36.328125 C348.353472,36.2031244 347.88082,36.1171877 347.365193,36.0703125 L347.365193,34.359375 L358.54488,33.75 L358.896443,34.1015625 L358.896443,37.5 L358.990193,37.5 C360.068323,36.2499938 361.212843,35.2695348 362.423787,34.5585938 C363.63473,33.8476527 364.896436,33.4921875 366.208943,33.4921875 C367.662075,33.4921875 368.830032,33.9414018 369.712849,34.8398438 C370.595666,35.7382857 371.037068,36.8984304 371.037068,38.3203125 Z" id="Member" fill="#FFFFFF"></path>
    </g>
</svg>