<?xml version="1.0" encoding="UTF-8"?>
<svg width="29px" height="29px" viewBox="0 0 29 29" version="1.1" xmlns="http://www.w3.org/2000/svg" xmlns:xlink="http://www.w3.org/1999/xlink">
    <!-- Generator: Sketch 50.2 (55047) - http://www.bohemiancoding.com/sketch -->
    <title>icon/social/linkedin</title>
    <desc>Created with Sketch.</desc>
    <defs>
        <path d="M22.8000009,0 L6.00000024,0 C2.68680011,0 0,2.68680011 0,6.00000024 L0,22.8000009 C0,26.113201 2.68680011,28.8000011 6.00000024,28.8000011 L22.8000009,28.8000011 C26.114401,28.8000011 28.8000011,26.113201 28.8000011,22.8000009 L28.8000011,6.00000024 C28.8000011,2.68680011 26.114401,0 22.8000009,0 Z M9.60000038,22.8000009 L6.00000024,22.8000009 L6.00000024,9.60000038 L9.60000038,9.60000038 L9.60000038,22.8000009 Z M7.80000031,8.07840032 C6.64080026,8.07840032 5.70000023,7.13040028 5.70000023,5.96160024 C5.70000023,4.79280019 6.64080026,3.84480015 7.80000031,3.84480015 C8.95920036,3.84480015 9.90000039,4.79280019 9.90000039,5.96160024 C9.90000039,7.13040028 8.96040036,8.07840032 7.80000031,8.07840032 Z M24.000001,22.8000009 L20.4000008,22.8000009 L20.4000008,16.0752006 C20.4000008,12.0336005 15.6000006,12.3396005 15.6000006,16.0752006 L15.6000006,22.8000009 L12.0000005,22.8000009 L12.0000005,9.60000038 L15.6000006,9.60000038 L15.6000006,11.7180005 C17.2752007,8.61480034 24.000001,8.38560033 24.000001,14.6892006 L24.000001,22.8000009 Z" id="path-1"></path>
    </defs>
    <g id="Symbols" stroke="none" stroke-width="1" fill="none" fill-rule="evenodd">
        <g id="footer/colorful" transform="translate(-1392.000000, -204.000000)">
            <g id="icon/social/linkedin" transform="translate(1392.000000, 204.000000)">
                <mask id="mask-2" fill="white">
                    <use xlink:href="#path-1"></use>
                </mask>
                <use id="icon/social/linkedin-icon" fill="#4D3157" fill-rule="nonzero" xlink:href="#path-1"></use>
                <g id="color/white" mask="url(#mask-2)" fill="#FFFFFF" fill-rule="evenodd">
                    <rect x="0" y="0" width="29.0000012" height="29.0000012"></rect>
                </g>
            </g>
        </g>
    </g>
</svg>