<?xml version="1.0" encoding="UTF-8"?>
<svg width="29px" height="29px" viewBox="0 0 29 29" version="1.1" xmlns="http://www.w3.org/2000/svg" xmlns:xlink="http://www.w3.org/1999/xlink">
    <!-- Generator: Sketch 50.2 (55047) - http://www.bohemiancoding.com/sketch -->
    <title>icon/social/insta</title>
    <desc>Created with Sketch.</desc>
    <defs>
        <path d="M18.2796007,6.58560026 C17.2680007,6.54000026 16.9632007,6.53040026 14.4000006,6.53040026 C11.8368005,6.53040026 11.5332005,6.54000026 10.5216004,6.58560026 C7.91760031,6.70440027 6.70440027,7.93800032 6.58680026,10.5204004 C6.54000026,11.5332005 6.52920026,11.8368005 6.52920026,14.4000006 C6.52920026,16.9632007 6.54000026,17.2668007 6.58560026,18.2796007 C6.70440027,20.8572008 7.91280031,22.0956009 10.5204004,22.2144009 C11.5320005,22.2600009 11.8368005,22.2708009 14.4000006,22.2708009 C16.9644007,22.2708009 17.2680007,22.2612009 18.2796007,22.2156009 C20.8836008,22.0968009 22.0956009,20.8608008 22.2144009,18.2808007 C22.2600009,17.2680007 22.2696009,16.9644007 22.2696009,14.4012006 C22.2696009,11.8380005 22.2600009,11.5344005 22.2144009,10.5228004 C22.0956009,7.93920032 20.8812008,6.70440027 18.2796007,6.58560026 Z M14.4000006,19.3296008 C11.6772005,19.3296008 9.47040038,17.1228007 9.47040038,14.4000006 C9.47040038,11.6772005 11.6784005,9.47040038 14.4000006,9.47040038 C17.1216007,9.47040038 19.3296008,11.6772005 19.3296008,14.4000006 C19.3296008,17.1228007 17.1228007,19.3296008 14.4000006,19.3296008 Z M19.5252008,10.4280004 C18.8892008,10.4280004 18.3732007,9.91200039 18.3732007,9.27600037 C18.3732007,8.64000034 18.8892008,8.12400032 19.5252008,8.12400032 C20.1612008,8.12400032 20.6772008,8.64000034 20.6772008,9.27600037 C20.6772008,9.91200039 20.1612008,10.4280004 19.5252008,10.4280004 Z M17.6004007,14.4000006 C17.6004007,16.1676006 16.1676006,17.6004007 14.4000006,17.6004007 C12.6324005,17.6004007 11.1996004,16.1676006 11.1996004,14.4000006 C11.1996004,12.6324005 12.6324005,11.1996004 14.4000006,11.1996004 C16.1676006,11.1996004 17.6004007,12.6324005 17.6004007,14.4000006 Z M22.8000009,2.13162829e-15 L6.00000024,2.13162829e-15 C2.68680011,2.13162829e-15 0,2.68680011 0,6.00000024 L0,22.8000009 C0,26.113201 2.68680011,28.8000011 6.00000024,28.8000011 L22.8000009,28.8000011 C26.114401,28.8000011 28.8000011,26.113201 28.8000011,22.8000009 L28.8000011,6.00000024 C28.8000011,2.68680011 26.114401,0 22.8000009,2.13162829e-15 Z M23.942401,18.3576007 C23.7840009,21.8484009 21.8412009,23.7828009 18.3588007,23.942401 C17.3340007,23.989201 17.0076007,24.000001 14.4000006,24.000001 C11.7924005,24.000001 11.4672005,23.989201 10.4424004,23.942401 C6.95280028,23.7828009 5.0184002,21.8448009 4.85760019,18.3576007 C4.81080019,17.3340007 4.80000019,17.0076007 4.80000019,14.4000006 C4.80000019,11.7936005 4.81080019,11.4660005 4.85760019,10.4424004 C5.0184002,6.95280028 6.95520028,5.0172002 10.4424004,4.85880019 C11.4672005,4.81080019 11.7924005,4.80000019 14.4000006,4.80000019 C17.0076007,4.80000019 17.3340007,4.81080019 18.3588007,4.85760019 C21.8484009,5.0172002 23.7864009,6.95880028 23.942401,10.4412004 C23.989201,11.4660005 24.000001,11.7936005 24.000001,14.4000006 C24.000001,17.0076007 23.989201,17.3340007 23.942401,18.3576007 Z" id="path-1"></path>
    </defs>
    <g id="Symbols" stroke="none" stroke-width="1" fill="none" fill-rule="evenodd">
        <g id="footer/colorful" transform="translate(-1316.000000, -204.000000)">
            <g id="icon/social/insta" transform="translate(1316.000000, 204.000000)">
                <mask id="mask-2" fill="white">
                    <use xlink:href="#path-1"></use>
                </mask>
                <use id="icon/social/ig-icon" fill="#4D3157" fill-rule="nonzero" xlink:href="#path-1"></use>
                <g id="color/white" mask="url(#mask-2)" fill="#FFFFFF" fill-rule="evenodd">
                    <rect x="0" y="0" width="29.0000012" height="29.0000012"></rect>
                </g>
            </g>
        </g>
    </g>
</svg>