<?xml version="1.0" encoding="UTF-8"?>
<svg width="29px" height="29px" viewBox="0 0 29 29" version="1.1" xmlns="http://www.w3.org/2000/svg" xmlns:xlink="http://www.w3.org/1999/xlink">
    <!-- Generator: Sketch 50.2 (55047) - http://www.bohemiancoding.com/sketch -->
    <title>icon/social/twitter</title>
    <desc>Created with Sketch.</desc>
    <defs>
        <path d="M22.8000009,0 L6.00000024,0 C2.68680011,0 0,2.68680011 0,6.00000024 L0,22.8000009 C0,26.113201 2.68680011,28.8000011 6.00000024,28.8000011 L22.8000009,28.8000011 C26.114401,28.8000011 28.8000011,26.113201 28.8000011,22.8000009 L28.8000011,6.00000024 C28.8000011,2.68680011 26.114401,0 22.8000009,0 Z M22.6332009,11.0844004 C22.8840009,16.6248007 18.7524007,22.8024009 11.4372005,22.8024009 C9.21240037,22.8024009 7.14240028,22.1508009 5.39880021,21.0324008 C7.4892003,21.2784008 9.57480038,20.6988008 11.2308004,19.4016008 C9.50640038,19.3692008 8.05200032,18.2304007 7.5516003,16.6656007 C8.16960032,16.7832007 8.77680035,16.7484007 9.33000037,16.5984007 C7.4352003,16.2180006 6.12840024,14.5116006 6.17040025,12.6864005 C6.70080027,12.9816005 7.30920029,13.1592005 7.95360032,13.1796005 C6.20040025,12.0072005 5.70360023,9.69120039 6.73440027,7.92000031 C8.67720034,10.3032004 11.5800005,11.8716005 14.8536006,12.0360005 C14.2788006,9.57240038 16.1496006,7.20000029 18.6924007,7.20000029 C19.8240008,7.20000029 20.8488008,7.67760031 21.5664009,8.44440034 C22.4640009,8.26800033 23.3076009,7.94040032 24.069601,7.4892003 C23.7744009,8.40960033 23.1504009,9.18120036 22.3380009,9.66840038 C23.1348009,9.57240038 23.8944009,9.36120037 24.600001,9.04800036 C24.073201,9.83520039 23.4048009,10.5288004 22.6332009,11.0844004 Z" id="path-1"></path>
    </defs>
    <g id="Symbols" stroke="none" stroke-width="1" fill="none" fill-rule="evenodd">
        <g id="footer/colorful" transform="translate(-1355.000000, -204.000000)">
            <g id="icon/social/twitter" transform="translate(1355.000000, 204.000000)">
                <mask id="mask-2" fill="white">
                    <use xlink:href="#path-1"></use>
                </mask>
                <use id="icon/social/twitter-icon" fill="#4D3157" fill-rule="nonzero" xlink:href="#path-1"></use>
                <g id="color/white" mask="url(#mask-2)" fill="#FFFFFF" fill-rule="evenodd">
                    <rect x="0" y="0" width="29.0000012" height="29.0000012"></rect>
                </g>
            </g>
        </g>
    </g>
</svg>