<?xml version="1.0" encoding="UTF-8"?>
<svg width="224px" height="39px" viewBox="0 0 224 39" version="1.1" xmlns="http://www.w3.org/2000/svg" xmlns:xlink="http://www.w3.org/1999/xlink">
    <!-- Generator: Sketch 50.2 (55047) - http://www.bohemiancoding.com/sketch -->
    <title>logo/horizontal/white</title>
    <desc>Created with Sketch.</desc>
    <defs></defs>
    <g id="Symbols" stroke="none" stroke-width="1" fill="none" fill-rule="evenodd">
        <g id="logo/horizontal/white">
            <path d="M56.6415774,33.6331647 C56.2488774,33.2453314 56.0525274,32.7805814 56.0525274,32.2367481 L56.0525274,7.04816625 C56.0525274,6.49024961 56.2488774,6.02224964 56.6415774,5.64091633 C57.0342774,5.26066635 57.5078908,5.06891636 58.0634965,5.06891636 L66.2487018,5.06891636 C69.647067,5.06891636 72.1586207,5.70591633 73.7833629,6.97666625 C75.4081051,8.24849951 76.2204762,10.0316661 76.2204762,12.3304993 C76.2204762,14.0703325 75.7166551,15.5534157 74.707934,16.776499 C73.6992129,17.9995823 72.2535592,18.7340822 70.3709727,18.9789155 L70.3709727,19.0601655 C72.5782918,19.3060822 74.308761,20.0503321 75.5602224,21.2929154 C76.8138416,22.5387487 77.4395723,24.2406652 77.4395723,26.4019151 C77.4395723,27.4234984 77.2367492,28.390915 76.8300243,29.3095816 C76.4243781,30.2271649 75.8310128,31.0559148 75.0531648,31.7979981 C74.2742379,32.5379147 73.2353091,33.1261647 71.9352996,33.5616647 C70.63529,33.9971646 69.1594286,34.2138313 67.5077152,34.2138313 L58.0634965,34.2138313 C57.5078908,34.2138313 57.0342774,34.020998 56.6415774,33.6331647 Z M65.6596519,17.6334156 C67.9478844,17.6334156 69.6168593,17.2390823 70.6654977,16.4504157 C71.715215,15.6617491 72.2395342,14.3704158 72.2395342,12.5753326 C72.2395342,11.8397493 72.128413,11.2092493 71.9050919,10.678416 C71.6817707,10.1486661 71.3937188,9.72724942 71.042015,9.41416611 C70.6892323,9.10108279 70.236117,8.85624947 69.6805112,8.67858282 C69.1259843,8.50308283 68.5736151,8.38391617 68.0255613,8.3232495 C67.4775075,8.26149951 66.8301999,8.23116618 66.0857961,8.23116618 L60.114383,8.23116618 L60.114383,17.6334156 L65.6596519,17.6334156 Z M66.674846,31.0114982 L60.114383,31.0114982 L60.114383,20.7945821 L65.2130096,20.7945821 C67.9748556,20.7945821 69.9922978,21.1553321 71.2653361,21.8757487 C72.5383745,22.5961653 73.1738149,23.9351652 73.1738149,25.8938318 C73.1738149,27.8784983 72.6635207,29.2283316 71.6407746,29.9422482 C70.6180285,30.6550815 68.9630786,31.0114982 66.674846,31.0114982 Z M82.2954586,33.0210814 C80.9684779,32.0005814 80.3060664,30.5521648 80.3060664,28.6758316 C80.3060664,27.9012483 80.385901,27.220915 80.5488067,26.6359151 C80.7127913,26.0519984 80.9425856,25.5384985 81.2392682,25.0964985 C81.5370298,24.6544985 81.9567009,24.2807486 82.4982816,23.9752486 C83.0398624,23.6697486 83.6364642,23.4173319 84.2870084,23.2212486 C84.9364738,23.0229986 85.761791,22.8734986 86.7651179,22.7727486 C87.7652082,22.669832 88.7976639,22.5994153 89.862485,22.5571653 C90.9251484,22.517082 92.2068176,22.497582 93.710729,22.497582 L93.710729,20.2745821 C93.710729,18.8185822 93.353631,17.9183323 92.582256,17.2260823 C91.8098022,16.5316657 90.7341927,16.184999 89.3521908,16.184999 C88.5257947,16.184999 87.7015563,16.2738324 86.8751602,16.4504157 C86.0487641,16.626999 85.3982199,16.8035823 84.9246065,16.981249 C84.450993,17.1589156 83.7745565,17.5164156 83.0830162,17.8294989 C82.9470816,17.8966656 82.7852547,17.9313323 82.5953778,17.9313323 C82.2447528,17.9313323 81.9383605,17.7850823 81.682674,17.4925823 C81.4237509,17.2000823 81.2662394,16.7028323 81.2662394,16.3496657 C81.2662394,15.9423324 81.5510548,15.5144157 81.9308086,15.2966658 C84.0280854,14.1147492 86.5266929,13.5221659 89.4244735,13.5221659 C91.9036618,13.5221659 93.8434271,14.1006658 95.2437693,15.2554991 C96.6462692,16.4114157 97.3464404,18.1924156 97.3464404,20.5995821 L97.3464404,32.4891647 C97.3464404,33.0210814 97.1598,33.4381647 96.7875981,33.744748 C96.4143173,34.0513313 95.9849366,34.202998 95.498377,34.202998 C95.0107386,34.202998 94.5932251,34.0578313 94.2479944,33.764248 C93.9038425,33.4728313 93.7312271,33.062248 93.7312271,32.5314147 L93.7312271,30.5727482 C92.4722137,33.2236647 90.3868042,34.5507479 87.4760775,34.5507479 C85.3496718,34.5507479 83.6224392,34.0394146 82.2954586,33.0210814 Z M91.9543676,30.1643315 C93.1238368,28.8740816 93.710729,27.227415 93.710729,25.2286652 L93.710729,24.6187485 C92.0309657,24.6187485 90.6629888,24.6479985 89.6067985,24.7097485 C88.5506082,24.7704152 87.6174063,24.8787485 86.8050352,25.0369152 C85.9926641,25.1918318 85.3841949,25.4225818 84.9763911,25.7291651 C84.570745,26.0357484 84.2686681,26.4051651 84.0723181,26.8417484 C83.8759681,27.2750817 83.7788719,27.8340817 83.7788719,28.5133316 C83.7788719,29.7504982 84.1435219,30.6572482 84.8760584,31.2357481 C85.6064372,31.8131648 86.6022121,32.1024148 87.8612255,32.1024148 C89.4180004,32.1024148 90.7827407,31.4567481 91.9543676,30.1643315 Z M102.073944,33.7241647 C101.72224,33.4186647 101.545309,32.9864147 101.545309,32.4295814 L101.545309,15.6639157 C101.545309,15.1200824 101.728713,14.2718325 102.094442,13.9663325 C102.460171,13.6597492 102.892788,13.5069992 103.394452,13.5069992 C103.895036,13.5069992 104.324417,13.6532492 104.683673,13.9457492 C105.042928,14.2382492 105.222017,14.6488325 105.222017,15.1796658 L105.222017,16.974749 C105.736626,15.7375824 106.579205,15.1883324 107.750832,14.5220825 C108.922459,13.8558325 110.28612,13.5232492 111.842895,13.5232492 C114.077186,13.5232492 115.85836,14.1754158 117.185341,15.4808324 C118.513401,16.786249 119.175812,18.7644155 119.175812,21.4153321 L119.175812,32.4295814 C119.175812,32.9864147 118.995645,33.4186647 118.637468,33.7241647 C118.278212,34.0296646 117.84991,34.183498 117.348247,34.183498 C116.846583,34.183498 116.416124,34.0296646 116.057947,33.7241647 C115.698691,33.4186647 115.519603,32.9864147 115.519603,32.4295814 L115.519603,21.3752487 C115.519603,19.6343322 115.017939,18.6831656 114.212041,17.7720823 C113.406143,16.860999 112.272276,16.4049157 110.81044,16.4049157 C109.253665,16.4049157 107.93963,16.9628323 106.869415,18.0775823 C105.800278,19.1923322 105.21878,20.7089988 105.123842,22.6254153 L105.222017,32.4295814 C105.222017,32.9734147 105.035376,33.4013313 104.663175,33.7144147 C104.290973,34.0264146 103.85404,34.183498 103.353455,34.183498 C102.852871,34.183498 102.425648,34.0296646 102.073944,33.7241647 Z M139.532559,31.4697481 C139.831399,31.7828314 139.979201,32.1359981 139.979201,32.5314147 C139.979201,32.9658314 139.806586,33.3536647 139.462434,33.692748 C139.116124,34.0329146 138.720188,34.202998 138.273546,34.202998 C137.801011,34.202998 137.394286,34.0134146 137.05445,33.6320813 L127.506662,23.4054153 L127.0967,22.916832 L127.509898,22.4964987 L136.729717,14.0118325 C137.027478,13.7539992 137.346817,13.6239992 137.684496,13.6239992 C138.119271,13.6239992 138.500103,13.7940825 138.833467,14.1342492 C139.163594,14.4744158 139.330815,14.8546658 139.330815,15.2760824 C139.330815,15.6574157 139.16683,16.0040824 138.842097,16.3160824 L131.470342,22.9449986 L139.532559,31.4697481 Z M125.287475,5.05808303 C125.774035,5.05808303 126.198021,5.22166636 126.556198,5.54774967 C126.915454,5.87491632 127.094542,6.32341629 127.094542,6.89433292 L127.094542,32.3266647 C127.094542,32.9116647 126.908981,33.3666647 126.5357,33.692748 C126.163498,34.020998 125.726566,34.1824146 125.225981,34.1824146 C124.725396,34.1824146 124.298173,34.0231646 123.94647,33.7046647 C123.594766,33.3850813 123.418914,32.9246647 123.418914,32.3266647 L123.418914,6.89433292 C123.418914,6.32341629 123.603396,5.87491632 123.976677,5.54774967 C124.348879,5.22166636 124.785812,5.05808303 125.287475,5.05808303 Z M150.032968,30.8901648 C147.56241,28.1644983 146.327132,24.4150819 146.327132,19.6440822 C146.327132,14.8719991 147.56241,11.1193327 150.032968,8.3882495 C152.503526,5.656083 156.000066,4.28999974 160.523667,4.28999974 C165.073161,4.28999974 168.577253,5.656083 171.033786,8.3882495 C173.491397,11.1193327 174.719124,14.8719991 174.719124,19.6440822 C174.719124,24.4150819 173.491397,28.1644983 171.033786,30.8901648 C168.577253,33.614748 165.073161,34.9764979 160.523667,34.9764979 C156.000066,34.9764979 152.503526,33.614748 150.032968,30.8901648 Z M166.59865,27.6054984 C167.93534,25.7551651 168.603146,23.0999153 168.603146,19.6440822 C168.603146,16.2001657 167.939655,13.5503325 166.609438,11.692416 C165.278142,9.83558275 163.25099,8.9060828 160.523667,8.9060828 C157.809291,8.9060828 155.784296,9.83883275 154.446527,11.7032493 C153.110916,13.5665825 152.44311,16.214249 152.44311,19.6440822 C152.44311,23.0999153 153.107679,25.7551651 154.437897,27.6054984 C155.768114,29.4569149 157.796344,30.3820815 160.523667,30.3820815 C163.236965,30.3820815 165.263038,29.4569149 166.59865,27.6054984 Z M176.669678,33.5519147 C176.212247,33.114248 175.984611,32.5725814 175.984611,31.9258314 C175.984611,31.2779981 176.205774,30.5976648 176.648101,29.8837482 L190.636419,9.62974943 L178.359151,9.62974943 C177.716159,9.62974943 177.201549,9.39683277 176.820716,8.93316613 C176.437726,8.46733283 176.24677,7.93216619 176.24677,7.32441623 C176.24677,6.70583293 176.437726,6.16958297 176.820716,5.71891633 C177.201549,5.26716635 177.716159,5.04183303 178.359151,5.04183303 L195.124419,5.04183303 C195.888242,5.04183303 196.503184,5.24766635 196.966009,5.65716633 C197.427756,6.06883297 197.659707,6.61808294 197.659707,7.30599956 C197.659707,7.97874952 197.432071,8.65908282 196.975719,9.34591611 L182.928064,29.6605816 L195.466413,29.6605816 C196.123431,29.6605816 196.640198,29.8837482 197.016715,30.3279149 C197.392154,30.7731648 197.579873,31.3050815 197.579873,31.9258314 C197.579873,32.5314147 197.388917,33.0633314 197.005927,33.5226647 C196.622936,33.9809146 196.111563,34.2084146 195.466413,34.2084146 L178.641809,34.2084146 C177.783047,34.2084146 177.124951,33.9906646 176.669678,33.5519147 Z M223.167944,29.8252482 C224.122723,30.9389148 223.995419,32.6148314 222.88205,33.5703313 C222.380387,33.998248 221.764366,34.2084146 221.150502,34.2084146 C220.402862,34.2084146 219.659537,33.8953313 219.131981,33.2843313 L207.196707,19.6332488 L219.125508,5.93666631 C220.098627,4.84033304 221.778391,4.73524972 222.877735,5.70699966 C223.978158,6.6787496 224.079569,8.35683284 223.107529,9.45424944 L214.270701,19.6332488 L223.167944,29.8252482 Z M206.330393,5.87924965 C206.907576,6.43174962 207.196707,7.15216624 207.196707,8.04158285 L207.196707,31.2335815 C207.196707,32.1089148 206.907576,32.8228314 206.330393,33.3753313 C205.75429,33.9278313 205.076774,34.202998 204.298926,34.202998 C203.508132,34.202998 202.830617,33.9310813 202.267459,33.3850813 C201.703223,32.8401647 201.421644,32.1229981 201.421644,31.2335815 L201.421644,8.04158285 C201.421644,7.15216624 201.706459,6.43174962 202.277169,5.87924965 C202.847878,5.32674968 203.521078,5.0504997 204.298926,5.0504997 C205.076774,5.0504997 205.75429,5.32674968 206.330393,5.87924965 Z" id="Bank-OZK" fill="#FFFFFF"></path>
            <path d="M18.1300085,1.42458325 C19.675995,-0.126749992 22.1810756,-0.126749992 23.727062,1.42458325 L41.8570706,19.6299988 L23.727062,37.8364977 C22.1810756,39.3889143 19.675995,39.3889143 18.1300085,37.8364977 L17.6100047,37.3143311 L35.2200094,19.6299988 L17.6100047,1.94674988 L18.1300085,1.42458325 Z M11.4940262,8.08924952 C13.0389338,6.53683294 15.5440145,6.53683294 17.0900009,8.08924952 L17.6100047,8.61141615 L6.63706114,19.6299988 L17.6100047,30.6485815 L17.0900009,31.1718315 C15.5440145,32.7231647 13.0389338,32.7231647 11.4940262,31.1718315 L-7.10542736e-15,19.6299988 L11.4940262,8.08924952 Z" id="Diamond" fill="#E40046"></path>
        </g>
    </g>
</svg>